<?xml version="1.0" encoding="utf-8"?><svg viewBox="0 0 31 25" xmlns="http://www.w3.org/2000/svg" xmlns:xlink="http://www.w3.org/1999/xlink"><style>:root>svg{display:none}:root>svg:target{display:block}</style><svg fill="none" viewBox="0 0 12 18" id="facebook" xmlns="http://www.w3.org/2000/svg">
    <path d="M7.646 17.426V9.49h3.258l.484-3.107H7.646v-1.98c0-.896.304-1.51 1.87-1.51H11.5V.123A31.975 31.975 0 0 0 8.593 0c-2.88 0-4.856 1.445-4.856 4.097v2.28H.5v3.107h3.244v7.942h3.902Z" fill="#fff"/>
</svg><svg fill="none" viewBox="0 0 24 25" id="instagram" xmlns="http://www.w3.org/2000/svg">
    <path d="M11.999 7.743a4.624 4.624 0 1 0 0 9.248 4.624 4.624 0 0 0 0-9.248Zm0 7.627a3.004 3.004 0 1 1 0-6.008 3.004 3.004 0 0 1 0 6.008ZM16.806 8.651a1.078 1.078 0 1 0 0-2.156 1.078 1.078 0 0 0 0 2.156Z" fill="#fff"/>
    <path d="M20.533 6.477A4.605 4.605 0 0 0 17.9 3.845a6.607 6.607 0 0 0-2.186-.42c-.963-.042-1.268-.054-3.71-.054s-2.755 0-3.71.054a6.554 6.554 0 0 0-2.184.42 4.6 4.6 0 0 0-2.633 2.632 6.585 6.585 0 0 0-.419 2.186c-.043.962-.056 1.267-.056 3.71 0 2.442 0 2.753.056 3.71.015.748.156 1.486.419 2.187a4.61 4.61 0 0 0 2.634 2.632 6.583 6.583 0 0 0 2.185.45c.963.042 1.268.055 3.71.055s2.755 0 3.71-.055a6.616 6.616 0 0 0 2.186-.419 4.613 4.613 0 0 0 2.633-2.633c.263-.7.404-1.438.419-2.186.043-.962.056-1.267.056-3.71s0-2.753-.056-3.71a6.583 6.583 0 0 0-.421-2.217Zm-1.218 9.532a5.046 5.046 0 0 1-.311 1.688 2.987 2.987 0 0 1-1.712 1.711c-.535.198-1.1.304-1.67.311-.95.044-1.218.055-3.654.055-2.438 0-2.687 0-3.655-.055a4.961 4.961 0 0 1-1.67-.31 2.985 2.985 0 0 1-1.718-1.712 5.08 5.08 0 0 1-.311-1.669c-.043-.95-.053-1.218-.053-3.654 0-2.437 0-2.686.053-3.655a5.038 5.038 0 0 1 .311-1.687c.305-.789.93-1.41 1.719-1.712a5.01 5.01 0 0 1 1.669-.31c.95-.044 1.218-.056 3.655-.056s2.687 0 3.654.055a4.96 4.96 0 0 1 1.67.311 2.99 2.99 0 0 1 1.712 1.712c.197.535.302 1.1.311 1.67.043.95.054 1.217.054 3.654 0 2.436 0 2.698-.043 3.654h-.011Z" fill="#fff"/>
</svg><svg fill="none" viewBox="0 0 31 17" id="nav-btn" xmlns="http://www.w3.org/2000/svg">
    <g opacity=".75" stroke="#fff" stroke-width="4" stroke-linecap="round">
        <path d="M2 2h27M10 15h19"/>
    </g>
</svg><svg fill="none" viewBox="0 0 20 15" id="twitter" xmlns="http://www.w3.org/2000/svg">
    <path d="M17.945 3.9c.014.153.014.305.014.457 0 4.65-4.125 10.01-11.663 10.01-2.323 0-4.48-.578-6.296-1.58.33.032.647.043.99.043 1.845.004 3.638-.525 5.09-1.503a4.567 4.567 0 0 1-2.372-.693c-.688-.437-1.199-1.048-1.462-1.746.253.032.508.054.775.054.367 0 .736-.044 1.08-.12-.93-.16-1.764-.592-2.363-1.222-.6-.63-.926-1.417-.925-2.23v-.044c.547.261 1.18.425 1.852.447a3.775 3.775 0 0 1-1.343-1.268 3.124 3.124 0 0 1-.484-1.662c0-.653.202-1.252.557-1.774 1.03 1.087 2.315 1.976 3.771 2.61 1.456.635 3.052 1 4.682 1.07a3.455 3.455 0 0 1-.101-.805c0-.462.105-.92.311-1.347.206-.427.508-.815.889-1.141.38-.327.832-.586 1.33-.763a4.691 4.691 0 0 1 1.569-.267c1.18 0 2.246.424 2.995 1.11a8.953 8.953 0 0 0 2.601-.85c-.306.814-.946 1.503-1.802 1.94A9.306 9.306 0 0 0 20 2.08 8.232 8.232 0 0 1 17.945 3.9Z" fill="#fff"/>
</svg></svg>